%TF.GenerationSoftware,KiCad,Pcbnew,8.0.3*%
%TF.CreationDate,2024-07-02T11:26:53+01:00*%
%TF.ProjectId,I_Can_Solder_Badge,495f4361-6e5f-4536-9f6c-6465725f4261,rev?*%
%TF.SameCoordinates,Original*%
%TF.FileFunction,Legend,Top*%
%TF.FilePolarity,Positive*%
%FSLAX46Y46*%
G04 Gerber Fmt 4.6, Leading zero omitted, Abs format (unit mm)*
G04 Created by KiCad (PCBNEW 8.0.3) date 2024-07-02 11:26:53*
%MOMM*%
%LPD*%
G01*
G04 APERTURE LIST*
%ADD10C,0.000000*%
%ADD11C,0.120000*%
G04 APERTURE END LIST*
D10*
G36*
X143788272Y-73946523D02*
G01*
X143851285Y-73950039D01*
X143911562Y-73956061D01*
X143969317Y-73964719D01*
X144024765Y-73976147D01*
X144078120Y-73990475D01*
X144129595Y-74007836D01*
X144179406Y-74028361D01*
X144227767Y-74052183D01*
X144274891Y-74079433D01*
X144320993Y-74110243D01*
X144366288Y-74144745D01*
X144410990Y-74183070D01*
X144455312Y-74225352D01*
X144499469Y-74271721D01*
X144543676Y-74322309D01*
X146400192Y-76544496D01*
X146402845Y-76548092D01*
X146405531Y-76551496D01*
X146408247Y-76554712D01*
X146410993Y-76557745D01*
X146413768Y-76560601D01*
X146416571Y-76563284D01*
X146419400Y-76565800D01*
X146422255Y-76568155D01*
X146425135Y-76570352D01*
X146428039Y-76572398D01*
X146433913Y-76576056D01*
X146439870Y-76579169D01*
X146445901Y-76581779D01*
X146451997Y-76583928D01*
X146458152Y-76585655D01*
X146464356Y-76587004D01*
X146470602Y-76588015D01*
X146476880Y-76588729D01*
X146483183Y-76589188D01*
X146489504Y-76589433D01*
X146495832Y-76589506D01*
X146504134Y-76589110D01*
X146508176Y-76588616D01*
X146512139Y-76587923D01*
X146516020Y-76587033D01*
X146519814Y-76585946D01*
X146523518Y-76584660D01*
X146527127Y-76583177D01*
X146530637Y-76581496D01*
X146534044Y-76579617D01*
X146537343Y-76577540D01*
X146540532Y-76575266D01*
X146543605Y-76572794D01*
X146546559Y-76570124D01*
X146549389Y-76567256D01*
X146552091Y-76564191D01*
X146554661Y-76560927D01*
X146557096Y-76557466D01*
X146559390Y-76553807D01*
X146561540Y-76549951D01*
X146563542Y-76545896D01*
X146565391Y-76541644D01*
X146567083Y-76537194D01*
X146568615Y-76532546D01*
X146569983Y-76527700D01*
X146571181Y-76522657D01*
X146572206Y-76517416D01*
X146573054Y-76511977D01*
X146573721Y-76506340D01*
X146574202Y-76500505D01*
X146574592Y-76488243D01*
X146574592Y-74029767D01*
X147570360Y-74029767D01*
X147570356Y-77095828D01*
X147569360Y-77148655D01*
X147566411Y-77199554D01*
X147561567Y-77248541D01*
X147554885Y-77295632D01*
X147546423Y-77340845D01*
X147536239Y-77384195D01*
X147524390Y-77425699D01*
X147510933Y-77465373D01*
X147495928Y-77503235D01*
X147479431Y-77539300D01*
X147461500Y-77573585D01*
X147442193Y-77606106D01*
X147421568Y-77636880D01*
X147399681Y-77665924D01*
X147376591Y-77693254D01*
X147352356Y-77718886D01*
X147327033Y-77742836D01*
X147300680Y-77765123D01*
X147273354Y-77785761D01*
X147245114Y-77804767D01*
X147216017Y-77822158D01*
X147186120Y-77837950D01*
X147155482Y-77852160D01*
X147124159Y-77864805D01*
X147092211Y-77875900D01*
X147059693Y-77885462D01*
X147026665Y-77893508D01*
X146993183Y-77900054D01*
X146959306Y-77905116D01*
X146925091Y-77908712D01*
X146890596Y-77910858D01*
X146855879Y-77911569D01*
X146796672Y-77910507D01*
X146739286Y-77907295D01*
X146683697Y-77901890D01*
X146629879Y-77894252D01*
X146577809Y-77884340D01*
X146527461Y-77872112D01*
X146478811Y-77857527D01*
X146431834Y-77840544D01*
X146386505Y-77821122D01*
X146342799Y-77799219D01*
X146300692Y-77774794D01*
X146260159Y-77747806D01*
X146221175Y-77718215D01*
X146183716Y-77685978D01*
X146147757Y-77651054D01*
X146113273Y-77613403D01*
X144026102Y-75199933D01*
X144020826Y-75193803D01*
X144015542Y-75188068D01*
X144010242Y-75182728D01*
X144004917Y-75177784D01*
X143999559Y-75173235D01*
X143994160Y-75169082D01*
X143988711Y-75165324D01*
X143983205Y-75161962D01*
X143977633Y-75158995D01*
X143971986Y-75156424D01*
X143966258Y-75154248D01*
X143960439Y-75152468D01*
X143954521Y-75151083D01*
X143948496Y-75150094D01*
X143942356Y-75149501D01*
X143936092Y-75149303D01*
X143931363Y-75149418D01*
X143926674Y-75149762D01*
X143922033Y-75150332D01*
X143917446Y-75151127D01*
X143912921Y-75152144D01*
X143908465Y-75153382D01*
X143904085Y-75154838D01*
X143899789Y-75156511D01*
X143895583Y-75158397D01*
X143891475Y-75160496D01*
X143887472Y-75162806D01*
X143883581Y-75165323D01*
X143879810Y-75168046D01*
X143876166Y-75170973D01*
X143872655Y-75174102D01*
X143869285Y-75177431D01*
X143866064Y-75180958D01*
X143862999Y-75184680D01*
X143860096Y-75188597D01*
X143857363Y-75192704D01*
X143854808Y-75197002D01*
X143852436Y-75201486D01*
X143850257Y-75206156D01*
X143848276Y-75211010D01*
X143846501Y-75216045D01*
X143844939Y-75221259D01*
X143843598Y-75226650D01*
X143842485Y-75232217D01*
X143841606Y-75237956D01*
X143840970Y-75243867D01*
X143840583Y-75249946D01*
X143840452Y-75256193D01*
X143840452Y-77832809D01*
X142839059Y-77832809D01*
X142839059Y-74834257D01*
X142840140Y-74774785D01*
X142843354Y-74717657D01*
X142848660Y-74662843D01*
X142856014Y-74610312D01*
X142865375Y-74560036D01*
X142876700Y-74511983D01*
X142889947Y-74466125D01*
X142905075Y-74422430D01*
X142922040Y-74380871D01*
X142940800Y-74341415D01*
X142961314Y-74304035D01*
X142983539Y-74268699D01*
X143007433Y-74235378D01*
X143032953Y-74204042D01*
X143060057Y-74174661D01*
X143088704Y-74147206D01*
X143118850Y-74121646D01*
X143150454Y-74097951D01*
X143183474Y-74076093D01*
X143217866Y-74056040D01*
X143253590Y-74037762D01*
X143290602Y-74021231D01*
X143328860Y-74006416D01*
X143368323Y-73993288D01*
X143408948Y-73981816D01*
X143450692Y-73971970D01*
X143537372Y-73957039D01*
X143628023Y-73948255D01*
X143722309Y-73945381D01*
X143788272Y-73946523D01*
G37*
G36*
X142189274Y-79092988D02*
G01*
X142302415Y-79095212D01*
X142411921Y-79101812D01*
X142517851Y-79112680D01*
X142620263Y-79127710D01*
X142719213Y-79146795D01*
X142814760Y-79169827D01*
X142906960Y-79196699D01*
X142995873Y-79227304D01*
X143081555Y-79261535D01*
X143164065Y-79299286D01*
X143243459Y-79340448D01*
X143319796Y-79384914D01*
X143393133Y-79432579D01*
X143463529Y-79483333D01*
X143531040Y-79537071D01*
X143595724Y-79593685D01*
X143664726Y-79660840D01*
X143730292Y-79731406D01*
X143792282Y-79805237D01*
X143850555Y-79882182D01*
X143904971Y-79962094D01*
X143955390Y-80044825D01*
X144001673Y-80130225D01*
X144043678Y-80218148D01*
X144081266Y-80308443D01*
X144114297Y-80400964D01*
X144142631Y-80495562D01*
X144166127Y-80592088D01*
X144184646Y-80690393D01*
X144198047Y-80790331D01*
X144206191Y-80891752D01*
X144208936Y-80994508D01*
X144206777Y-81087779D01*
X144200366Y-81179764D01*
X144189801Y-81270365D01*
X144175182Y-81359482D01*
X144156607Y-81447017D01*
X144134175Y-81532871D01*
X144107986Y-81616945D01*
X144078137Y-81699139D01*
X144044728Y-81779357D01*
X144007859Y-81857497D01*
X143967626Y-81933462D01*
X143924131Y-82007152D01*
X143877471Y-82078469D01*
X143827745Y-82147314D01*
X143775052Y-82213587D01*
X143719492Y-82277191D01*
X143652305Y-82347183D01*
X143581517Y-82413615D01*
X143507086Y-82476356D01*
X143428972Y-82535273D01*
X143347133Y-82590234D01*
X143261528Y-82641108D01*
X143172116Y-82687763D01*
X143078854Y-82730066D01*
X142981704Y-82767886D01*
X142880622Y-82801092D01*
X142775568Y-82829551D01*
X142666501Y-82853131D01*
X142553380Y-82871701D01*
X142436162Y-82885128D01*
X142314808Y-82893281D01*
X142189275Y-82896028D01*
X140135858Y-82896028D01*
X140106193Y-82895104D01*
X140092055Y-82893947D01*
X140078381Y-82892325D01*
X140065174Y-82890238D01*
X140052432Y-82887684D01*
X140040159Y-82884662D01*
X140028354Y-82881172D01*
X140017019Y-82877212D01*
X140006154Y-82872781D01*
X139995762Y-82867879D01*
X139985842Y-82862503D01*
X139976396Y-82856654D01*
X139967425Y-82850330D01*
X139958929Y-82843530D01*
X139950911Y-82836253D01*
X139943371Y-82828498D01*
X139936309Y-82820264D01*
X139929728Y-82811550D01*
X139923628Y-82802355D01*
X139918009Y-82792678D01*
X139912874Y-82782517D01*
X139908223Y-82771873D01*
X139904058Y-82760743D01*
X139900378Y-82749127D01*
X139897186Y-82737024D01*
X139894482Y-82724433D01*
X139892267Y-82711352D01*
X139890543Y-82697781D01*
X139889310Y-82683718D01*
X139888570Y-82669163D01*
X139888323Y-82654115D01*
X139888323Y-81815875D01*
X140906591Y-81815875D01*
X140906856Y-81826031D01*
X140907189Y-81830818D01*
X140907657Y-81835413D01*
X140908261Y-81839818D01*
X140909002Y-81844036D01*
X140909881Y-81848068D01*
X140910899Y-81851917D01*
X140912057Y-81855584D01*
X140913357Y-81859073D01*
X140914798Y-81862384D01*
X140916383Y-81865520D01*
X140918112Y-81868483D01*
X140919986Y-81871274D01*
X140922006Y-81873897D01*
X140924174Y-81876353D01*
X140926490Y-81878645D01*
X140928956Y-81880773D01*
X140931572Y-81882741D01*
X140934339Y-81884550D01*
X140937258Y-81886202D01*
X140940332Y-81887700D01*
X140943559Y-81889046D01*
X140946943Y-81890241D01*
X140950482Y-81891288D01*
X140954180Y-81892188D01*
X140958035Y-81892945D01*
X140962051Y-81893559D01*
X140966227Y-81894033D01*
X140970565Y-81894369D01*
X140979730Y-81894636D01*
X142189277Y-81894636D01*
X142255412Y-81893328D01*
X142318835Y-81889449D01*
X142379605Y-81883065D01*
X142437779Y-81874242D01*
X142493415Y-81863045D01*
X142546570Y-81849541D01*
X142597302Y-81833795D01*
X142645669Y-81815874D01*
X142691729Y-81795843D01*
X142735539Y-81773769D01*
X142777157Y-81749716D01*
X142816641Y-81723752D01*
X142854048Y-81695941D01*
X142889436Y-81666351D01*
X142922862Y-81635047D01*
X142954385Y-81602094D01*
X142981144Y-81571909D01*
X143006534Y-81540463D01*
X143030507Y-81507814D01*
X143053013Y-81474019D01*
X143074003Y-81439137D01*
X143093427Y-81403224D01*
X143111235Y-81366339D01*
X143127379Y-81328539D01*
X143141808Y-81289882D01*
X143154475Y-81250426D01*
X143165328Y-81210228D01*
X143174318Y-81169346D01*
X143181397Y-81127838D01*
X143186514Y-81085762D01*
X143189621Y-81043174D01*
X143190668Y-81000133D01*
X143189425Y-80952877D01*
X143185734Y-80906098D01*
X143179654Y-80859880D01*
X143171241Y-80814305D01*
X143160554Y-80769455D01*
X143147650Y-80725413D01*
X143132587Y-80682261D01*
X143115423Y-80640081D01*
X143096215Y-80598956D01*
X143075020Y-80558968D01*
X143051898Y-80520200D01*
X143026904Y-80482735D01*
X143000098Y-80446653D01*
X142971536Y-80412038D01*
X142941277Y-80378973D01*
X142909378Y-80347539D01*
X142878175Y-80319728D01*
X142845670Y-80293292D01*
X142811747Y-80268291D01*
X142776292Y-80244781D01*
X142739189Y-80222820D01*
X142700322Y-80202467D01*
X142659576Y-80183777D01*
X142616836Y-80166811D01*
X142571986Y-80151624D01*
X142524911Y-80138275D01*
X142475496Y-80126821D01*
X142423625Y-80117321D01*
X142369183Y-80109831D01*
X142312054Y-80104410D01*
X142252123Y-80101115D01*
X142189275Y-80100004D01*
X140979730Y-80100007D01*
X140970564Y-80100274D01*
X140962048Y-80101084D01*
X140958032Y-80101698D01*
X140954176Y-80102455D01*
X140950478Y-80103355D01*
X140946938Y-80104402D01*
X140943555Y-80105597D01*
X140940327Y-80106943D01*
X140937254Y-80108441D01*
X140934335Y-80110094D01*
X140931567Y-80111903D01*
X140928952Y-80113871D01*
X140926487Y-80115999D01*
X140924171Y-80118290D01*
X140922003Y-80120746D01*
X140919983Y-80123369D01*
X140918109Y-80126161D01*
X140916380Y-80129124D01*
X140914796Y-80132260D01*
X140913355Y-80135571D01*
X140912056Y-80139059D01*
X140910898Y-80142727D01*
X140909880Y-80146576D01*
X140909001Y-80150608D01*
X140908260Y-80154826D01*
X140907657Y-80159231D01*
X140906856Y-80168612D01*
X140906591Y-80178768D01*
X140906591Y-81815875D01*
X139888323Y-81815875D01*
X139888323Y-80178768D01*
X139888323Y-79329271D01*
X139888570Y-79314734D01*
X139889310Y-79300658D01*
X139890543Y-79287044D01*
X139892267Y-79273891D01*
X139894482Y-79261200D01*
X139897186Y-79248971D01*
X139900378Y-79237202D01*
X139904057Y-79225896D01*
X139908223Y-79215051D01*
X139912874Y-79204667D01*
X139918009Y-79194745D01*
X139923627Y-79185284D01*
X139929727Y-79176285D01*
X139936308Y-79167748D01*
X139943369Y-79159672D01*
X139950910Y-79152057D01*
X139958928Y-79144904D01*
X139967423Y-79138212D01*
X139976394Y-79131982D01*
X139985840Y-79126214D01*
X139995760Y-79120906D01*
X140006153Y-79116061D01*
X140017017Y-79111677D01*
X140028352Y-79107754D01*
X140040157Y-79104293D01*
X140052431Y-79101293D01*
X140065172Y-79098755D01*
X140078380Y-79096678D01*
X140092054Y-79095063D01*
X140106192Y-79093909D01*
X140135858Y-79092986D01*
X142189274Y-79092988D01*
G37*
G36*
X140016394Y-73948086D02*
G01*
X140063436Y-73951472D01*
X140109475Y-73956215D01*
X140154517Y-73962317D01*
X140198567Y-73969782D01*
X140241633Y-73978610D01*
X140283721Y-73988805D01*
X140324836Y-74000367D01*
X140364985Y-74013299D01*
X140404173Y-74027604D01*
X140442408Y-74043283D01*
X140479695Y-74060337D01*
X140516041Y-74078771D01*
X140551451Y-74098584D01*
X140585932Y-74119780D01*
X140619490Y-74142361D01*
X140652131Y-74166328D01*
X140683862Y-74191683D01*
X140714688Y-74218429D01*
X140744616Y-74246568D01*
X140773652Y-74276102D01*
X140801802Y-74307033D01*
X140829072Y-74339362D01*
X140855469Y-74373092D01*
X140880998Y-74408226D01*
X140905666Y-74444764D01*
X140929480Y-74482710D01*
X140952444Y-74522065D01*
X140974565Y-74562831D01*
X141016306Y-74648605D01*
X142389009Y-77664033D01*
X142399052Y-77686745D01*
X142408171Y-77708600D01*
X142416499Y-77729795D01*
X142424168Y-77750529D01*
X142431309Y-77771000D01*
X142438055Y-77791404D01*
X142444538Y-77811941D01*
X142450889Y-77832807D01*
X141303226Y-77832807D01*
X141301051Y-77823442D01*
X141298752Y-77814325D01*
X141296338Y-77805438D01*
X141293817Y-77796765D01*
X141288488Y-77779997D01*
X141282829Y-77763889D01*
X141276907Y-77748308D01*
X141270787Y-77733123D01*
X141258217Y-77703412D01*
X141055689Y-77242097D01*
X138805367Y-77242097D01*
X138608464Y-77697788D01*
X138595977Y-77731543D01*
X138590062Y-77748420D01*
X138584544Y-77765297D01*
X138579554Y-77782174D01*
X138575226Y-77799051D01*
X138573351Y-77807490D01*
X138571691Y-77815929D01*
X138570263Y-77824368D01*
X138569084Y-77832807D01*
X137393292Y-77832807D01*
X137406122Y-77791404D01*
X137412868Y-77771000D01*
X137420010Y-77750529D01*
X137427680Y-77729794D01*
X137436009Y-77708599D01*
X137445129Y-77686744D01*
X137455172Y-77664033D01*
X138024133Y-76403856D01*
X139176668Y-76403856D01*
X140684383Y-76403856D01*
X140099300Y-75042411D01*
X140096037Y-75034647D01*
X140092582Y-75027177D01*
X140088939Y-75019998D01*
X140085114Y-75013105D01*
X140081112Y-75006498D01*
X140076938Y-75000171D01*
X140072597Y-74994123D01*
X140068094Y-74988349D01*
X140063435Y-74982848D01*
X140058624Y-74977616D01*
X140053667Y-74972649D01*
X140048569Y-74967945D01*
X140043335Y-74963501D01*
X140037970Y-74959313D01*
X140026868Y-74951694D01*
X140015305Y-74945065D01*
X140003322Y-74939399D01*
X139990959Y-74934673D01*
X139978258Y-74930862D01*
X139965261Y-74927941D01*
X139952008Y-74925885D01*
X139938540Y-74924670D01*
X139924900Y-74924270D01*
X139912312Y-74924608D01*
X139899880Y-74925655D01*
X139887630Y-74927459D01*
X139875585Y-74930072D01*
X139863772Y-74933542D01*
X139857960Y-74935613D01*
X139852214Y-74937918D01*
X139846539Y-74940461D01*
X139840936Y-74943250D01*
X139835410Y-74946290D01*
X139829964Y-74949587D01*
X139824599Y-74953148D01*
X139819320Y-74956979D01*
X139814130Y-74961086D01*
X139809032Y-74965476D01*
X139804028Y-74970153D01*
X139799122Y-74975126D01*
X139794317Y-74980399D01*
X139789616Y-74985979D01*
X139785023Y-74991872D01*
X139780539Y-74998085D01*
X139776169Y-75004623D01*
X139771915Y-75011492D01*
X139767781Y-75018700D01*
X139763769Y-75026251D01*
X139759883Y-75034153D01*
X139756126Y-75042411D01*
X139176668Y-76403856D01*
X138024133Y-76403856D01*
X138816617Y-74648605D01*
X138858235Y-74562831D01*
X138902993Y-74482710D01*
X138950998Y-74408226D01*
X139002356Y-74339362D01*
X139057176Y-74276102D01*
X139115565Y-74218429D01*
X139177629Y-74166328D01*
X139243475Y-74119780D01*
X139313211Y-74078771D01*
X139386944Y-74043283D01*
X139464781Y-74013299D01*
X139546829Y-73988805D01*
X139633195Y-73969782D01*
X139723987Y-73956215D01*
X139819311Y-73948086D01*
X139919275Y-73945381D01*
X140016394Y-73948086D01*
G37*
G36*
X148692693Y-79092988D02*
G01*
X148692693Y-80100006D01*
X145801033Y-80100006D01*
X145795330Y-80100104D01*
X145789824Y-80100400D01*
X145784514Y-80100891D01*
X145779399Y-80101577D01*
X145774477Y-80102457D01*
X145769748Y-80103529D01*
X145765210Y-80104793D01*
X145760863Y-80106247D01*
X145756705Y-80107891D01*
X145752736Y-80109724D01*
X145748955Y-80111744D01*
X145745360Y-80113951D01*
X145741950Y-80116343D01*
X145738725Y-80118919D01*
X145735683Y-80121679D01*
X145732823Y-80124621D01*
X145730144Y-80127744D01*
X145727646Y-80131047D01*
X145725327Y-80134530D01*
X145723187Y-80138191D01*
X145721223Y-80142029D01*
X145719436Y-80146044D01*
X145717823Y-80150233D01*
X145716385Y-80154596D01*
X145715120Y-80159133D01*
X145714027Y-80163841D01*
X145713105Y-80168720D01*
X145712353Y-80173770D01*
X145711354Y-80184374D01*
X145711023Y-80195646D01*
X145711023Y-80628831D01*
X148675821Y-80628831D01*
X148675821Y-81360185D01*
X145711025Y-81360185D01*
X145711025Y-81821500D01*
X145711356Y-81833763D01*
X145711771Y-81839598D01*
X145712354Y-81845235D01*
X145713107Y-81850674D01*
X145714029Y-81855915D01*
X145715122Y-81860959D01*
X145716387Y-81865804D01*
X145717825Y-81870452D01*
X145719438Y-81874902D01*
X145721225Y-81879155D01*
X145723189Y-81883209D01*
X145725329Y-81887066D01*
X145727648Y-81890725D01*
X145730146Y-81894186D01*
X145732825Y-81897449D01*
X145735684Y-81900514D01*
X145738726Y-81903382D01*
X145741952Y-81906052D01*
X145745362Y-81908524D01*
X145748957Y-81910798D01*
X145752738Y-81912875D01*
X145756707Y-81914754D01*
X145760865Y-81916435D01*
X145765212Y-81917918D01*
X145769750Y-81919204D01*
X145774479Y-81920291D01*
X145779401Y-81921181D01*
X145784516Y-81921873D01*
X145789826Y-81922368D01*
X145795332Y-81922664D01*
X145801035Y-81922763D01*
X148692695Y-81922763D01*
X148692695Y-82896028D01*
X145227203Y-82896028D01*
X145162793Y-82893983D01*
X145132124Y-82891425D01*
X145102480Y-82887842D01*
X145073861Y-82883233D01*
X145046270Y-82877597D01*
X145019706Y-82870933D01*
X144994172Y-82863240D01*
X144969668Y-82854517D01*
X144946195Y-82844762D01*
X144923754Y-82833976D01*
X144902346Y-82822156D01*
X144881973Y-82809302D01*
X144862635Y-82795413D01*
X144844333Y-82780487D01*
X144827068Y-82764525D01*
X144810842Y-82747523D01*
X144795655Y-82729483D01*
X144781509Y-82710402D01*
X144768404Y-82690279D01*
X144756342Y-82669114D01*
X144745323Y-82646906D01*
X144735348Y-82623653D01*
X144726419Y-82599354D01*
X144718537Y-82574009D01*
X144711702Y-82547617D01*
X144705916Y-82520175D01*
X144701180Y-82491684D01*
X144697495Y-82462142D01*
X144694861Y-82431549D01*
X144693280Y-82399902D01*
X144692753Y-82367202D01*
X144692753Y-79604934D01*
X144693280Y-79573272D01*
X144694862Y-79542631D01*
X144697499Y-79513010D01*
X144701191Y-79484408D01*
X144705938Y-79456823D01*
X144711740Y-79430255D01*
X144718596Y-79404703D01*
X144726508Y-79380166D01*
X144735474Y-79356642D01*
X144745495Y-79334131D01*
X144756571Y-79312631D01*
X144768701Y-79292142D01*
X144781887Y-79272662D01*
X144796127Y-79254191D01*
X144811422Y-79236727D01*
X144827772Y-79220270D01*
X144845177Y-79204818D01*
X144863637Y-79190371D01*
X144883151Y-79176926D01*
X144903721Y-79164485D01*
X144925345Y-79153044D01*
X144948024Y-79142604D01*
X144971758Y-79133162D01*
X144996546Y-79124719D01*
X145022390Y-79117274D01*
X145049288Y-79110824D01*
X145077242Y-79105369D01*
X145106249Y-79100909D01*
X145136312Y-79097441D01*
X145167430Y-79094966D01*
X145232830Y-79092986D01*
X148692693Y-79092988D01*
G37*
G36*
X147898801Y-56412349D02*
G01*
X147900007Y-56415215D01*
X147900410Y-56419140D01*
X147900027Y-56424096D01*
X147898875Y-56430057D01*
X147896969Y-56436994D01*
X147890962Y-56453688D01*
X147882139Y-56473958D01*
X147870632Y-56497583D01*
X147856571Y-56524343D01*
X147840089Y-56554018D01*
X147821316Y-56586388D01*
X147800385Y-56621231D01*
X147777426Y-56658329D01*
X147752571Y-56697460D01*
X147725952Y-56738404D01*
X147697700Y-56780941D01*
X147667947Y-56824851D01*
X147636823Y-56869913D01*
X147328672Y-57311754D01*
X148672521Y-58669473D01*
X149194040Y-59199508D01*
X149620663Y-59639171D01*
X149908385Y-59942664D01*
X149986406Y-60029034D01*
X150013200Y-60064187D01*
X150012641Y-60066431D01*
X150010980Y-60069218D01*
X150008247Y-60072531D01*
X150004470Y-60076353D01*
X149993895Y-60085463D01*
X149979480Y-60096416D01*
X149961450Y-60109080D01*
X149940031Y-60123326D01*
X149915448Y-60139021D01*
X149887926Y-60156035D01*
X149824965Y-60193493D01*
X149752950Y-60234653D01*
X149673683Y-60278463D01*
X149588964Y-60323877D01*
X149530650Y-60355214D01*
X149475491Y-60385977D01*
X149423194Y-60416394D01*
X149373465Y-60446696D01*
X149326009Y-60477112D01*
X149280532Y-60507873D01*
X149236740Y-60539207D01*
X149194338Y-60571346D01*
X149153033Y-60604518D01*
X149112530Y-60638954D01*
X149072534Y-60674883D01*
X149032753Y-60712535D01*
X148992891Y-60752141D01*
X148952654Y-60793929D01*
X148911748Y-60838130D01*
X148869878Y-60884973D01*
X148809447Y-60952962D01*
X148751978Y-61016361D01*
X148698806Y-61073784D01*
X148651266Y-61123841D01*
X148610693Y-61165144D01*
X148578423Y-61196306D01*
X148555790Y-61215937D01*
X148548505Y-61220995D01*
X148544130Y-61222650D01*
X148537902Y-61220166D01*
X148525142Y-61212877D01*
X148481437Y-61184875D01*
X148415832Y-61140618D01*
X148331148Y-61082078D01*
X148230202Y-61011231D01*
X148115813Y-60930049D01*
X147857984Y-60744577D01*
X147724661Y-60649038D01*
X147598184Y-60560514D01*
X147481471Y-60480901D01*
X147377441Y-60412095D01*
X147289012Y-60355994D01*
X147219104Y-60314494D01*
X147170634Y-60289492D01*
X147155350Y-60283770D01*
X147146520Y-60282884D01*
X147138135Y-60288793D01*
X147124067Y-60301386D01*
X147104644Y-60320321D01*
X147080190Y-60345255D01*
X147017495Y-60411755D01*
X146938589Y-60498152D01*
X146846079Y-60601710D01*
X146742569Y-60719692D01*
X146630667Y-60849365D01*
X146512979Y-60987993D01*
X145932533Y-61677484D01*
X146121244Y-62248239D01*
X146309913Y-62819032D01*
X145951784Y-63239847D01*
X145593595Y-63660859D01*
X145829027Y-66209794D01*
X146002198Y-68058409D01*
X146087980Y-68923639D01*
X146111574Y-69088769D01*
X146439451Y-69102098D01*
X146508934Y-69105140D01*
X146571114Y-69109474D01*
X146626326Y-69115408D01*
X146674906Y-69123245D01*
X146696814Y-69127973D01*
X146717189Y-69133293D01*
X146736075Y-69139241D01*
X146753512Y-69145857D01*
X146769543Y-69153178D01*
X146784209Y-69161243D01*
X146797553Y-69170089D01*
X146809617Y-69179757D01*
X146820443Y-69190282D01*
X146830071Y-69201704D01*
X146838546Y-69214061D01*
X146845908Y-69227392D01*
X146852199Y-69241734D01*
X146857461Y-69257125D01*
X146861737Y-69273604D01*
X146865069Y-69291210D01*
X146867497Y-69309979D01*
X146869065Y-69329952D01*
X146869786Y-69373657D01*
X146867567Y-69422632D01*
X146862745Y-69477182D01*
X146839559Y-69695062D01*
X146169313Y-69675233D01*
X145499040Y-69655412D01*
X144791248Y-67262720D01*
X144511864Y-66332076D01*
X144274398Y-65566842D01*
X144103970Y-65046215D01*
X144051745Y-64902377D01*
X144025699Y-64849389D01*
X143035844Y-64870069D01*
X140875623Y-64939015D01*
X138629742Y-65019380D01*
X137382906Y-65074319D01*
X137294957Y-65081712D01*
X137259153Y-65085477D01*
X137228253Y-65089667D01*
X137201849Y-65094565D01*
X137179535Y-65100455D01*
X137169783Y-65103861D01*
X137160902Y-65107621D01*
X137152839Y-65111771D01*
X137145543Y-65116346D01*
X137138965Y-65121382D01*
X137133052Y-65126914D01*
X137127754Y-65132978D01*
X137123020Y-65139609D01*
X137118799Y-65146843D01*
X137115040Y-65154715D01*
X137111693Y-65163261D01*
X137108706Y-65172516D01*
X137103608Y-65193295D01*
X137099341Y-65217336D01*
X137091668Y-65276338D01*
X137087409Y-65307080D01*
X137084752Y-65321538D01*
X137081572Y-65335532D01*
X137077740Y-65349169D01*
X137073129Y-65362559D01*
X137067609Y-65375810D01*
X137061051Y-65389030D01*
X137053328Y-65402327D01*
X137044311Y-65415810D01*
X137033871Y-65429587D01*
X137021880Y-65443767D01*
X137008208Y-65458458D01*
X136992729Y-65473768D01*
X136975312Y-65489806D01*
X136955830Y-65506680D01*
X136934154Y-65524498D01*
X136910155Y-65543369D01*
X136883705Y-65563401D01*
X136854675Y-65584703D01*
X136822938Y-65607382D01*
X136788363Y-65631548D01*
X136710190Y-65684771D01*
X136619127Y-65745239D01*
X136514146Y-65813820D01*
X136258319Y-65978784D01*
X135678572Y-66352841D01*
X135497271Y-66471140D01*
X135424818Y-66519937D01*
X135425523Y-66529235D01*
X135432031Y-66551682D01*
X135461320Y-66633304D01*
X135510422Y-66759365D01*
X135577073Y-66924430D01*
X135753968Y-67349827D01*
X135973898Y-67866006D01*
X136544583Y-69192125D01*
X136801404Y-69211954D01*
X136960808Y-69225591D01*
X137025702Y-69232483D01*
X137081552Y-69239983D01*
X137128979Y-69248512D01*
X137168602Y-69258487D01*
X137185681Y-69264149D01*
X137201042Y-69270330D01*
X137214762Y-69277083D01*
X137226919Y-69284460D01*
X137237591Y-69292514D01*
X137246855Y-69301297D01*
X137254788Y-69310862D01*
X137261469Y-69321260D01*
X137266974Y-69332545D01*
X137271382Y-69344769D01*
X137274770Y-69357984D01*
X137277215Y-69372243D01*
X137279587Y-69404103D01*
X137279120Y-69440768D01*
X137276434Y-69482657D01*
X137272150Y-69530191D01*
X137249086Y-69767908D01*
X136745266Y-69767908D01*
X136241448Y-69767297D01*
X135226743Y-68182573D01*
X135227105Y-68180444D01*
X134212402Y-66595735D01*
X134424316Y-66397394D01*
X134636249Y-66198930D01*
X134165662Y-64707986D01*
X133695080Y-63216874D01*
X134024816Y-62561998D01*
X134152944Y-62304665D01*
X134258050Y-62088044D01*
X134329276Y-61934907D01*
X134348791Y-61889262D01*
X134355766Y-61868028D01*
X134347395Y-61855933D01*
X134322557Y-61828074D01*
X134226845Y-61728395D01*
X134075355Y-61575650D01*
X133874814Y-61376499D01*
X133353485Y-60865618D01*
X132716669Y-60249032D01*
X132083940Y-59634314D01*
X131573717Y-59128605D01*
X131238091Y-58784251D01*
X131152030Y-58688940D01*
X131132285Y-58663363D01*
X131129151Y-58653596D01*
X131134430Y-58654066D01*
X131144746Y-58657874D01*
X131179967Y-58675171D01*
X131305140Y-58746159D01*
X131496369Y-58861240D01*
X131745351Y-59015090D01*
X132383372Y-59417811D01*
X133152794Y-59911744D01*
X133926826Y-60406600D01*
X134577393Y-60812301D01*
X135036179Y-61086953D01*
X135172304Y-61162044D01*
X135213315Y-61181739D01*
X135234867Y-61188661D01*
X138991023Y-60771423D01*
X142825742Y-60324510D01*
X142846098Y-60313850D01*
X142884838Y-60287304D01*
X143013439Y-60189836D01*
X143203479Y-60038661D01*
X143446891Y-59840334D01*
X143735607Y-59601412D01*
X144061561Y-59328448D01*
X144416685Y-59027999D01*
X144792913Y-58706621D01*
X145745404Y-57895737D01*
X146106280Y-57595376D01*
X146406746Y-57351949D01*
X146659177Y-57155616D01*
X146875950Y-56996536D01*
X147069444Y-56864871D01*
X147252033Y-56750780D01*
X147372887Y-56679325D01*
X147487532Y-56613343D01*
X147593320Y-56554231D01*
X147687606Y-56503384D01*
X147767741Y-56462198D01*
X147831079Y-56432070D01*
X147874973Y-56414395D01*
X147888801Y-56410664D01*
X147896776Y-56410570D01*
X147898801Y-56412349D01*
G37*
G36*
X137089490Y-75036783D02*
G01*
X135097956Y-75036783D01*
X135035108Y-75037894D01*
X134975178Y-75041189D01*
X134918049Y-75046610D01*
X134863606Y-75054100D01*
X134811735Y-75063600D01*
X134762320Y-75075054D01*
X134715245Y-75088403D01*
X134670395Y-75103590D01*
X134627655Y-75120556D01*
X134586909Y-75139246D01*
X134548042Y-75159599D01*
X134510939Y-75181560D01*
X134475484Y-75205070D01*
X134441561Y-75230071D01*
X134409056Y-75256507D01*
X134377853Y-75284318D01*
X134345954Y-75315752D01*
X134315695Y-75348818D01*
X134287133Y-75383432D01*
X134260327Y-75419514D01*
X134235333Y-75456980D01*
X134212211Y-75495748D01*
X134191017Y-75535736D01*
X134171808Y-75576861D01*
X134154644Y-75619041D01*
X134139581Y-75662193D01*
X134126677Y-75706235D01*
X134115990Y-75751085D01*
X134107577Y-75796660D01*
X134101497Y-75842878D01*
X134097806Y-75889656D01*
X134096563Y-75936912D01*
X134097610Y-75979953D01*
X134100716Y-76022541D01*
X134105834Y-76064617D01*
X134112913Y-76106125D01*
X134121904Y-76147007D01*
X134132757Y-76187205D01*
X134145424Y-76226661D01*
X134159854Y-76265318D01*
X134175998Y-76303118D01*
X134193806Y-76340003D01*
X134213230Y-76375916D01*
X134234220Y-76410798D01*
X134256726Y-76444593D01*
X134280699Y-76477242D01*
X134306089Y-76508688D01*
X134332847Y-76538873D01*
X134364370Y-76571826D01*
X134397797Y-76603130D01*
X134433184Y-76632720D01*
X134470591Y-76660531D01*
X134510075Y-76686495D01*
X134551693Y-76710548D01*
X134595503Y-76732622D01*
X134641563Y-76752653D01*
X134689930Y-76770575D01*
X134740663Y-76786320D01*
X134793818Y-76799824D01*
X134849454Y-76811021D01*
X134907628Y-76819844D01*
X134968398Y-76826228D01*
X135031822Y-76830107D01*
X135097956Y-76831415D01*
X137089490Y-76831415D01*
X137089490Y-77832805D01*
X135097956Y-77832805D01*
X134972424Y-77830058D01*
X134851069Y-77821905D01*
X134733852Y-77808478D01*
X134620730Y-77789908D01*
X134511663Y-77766328D01*
X134406609Y-77737870D01*
X134305527Y-77704664D01*
X134208376Y-77666844D01*
X134115115Y-77624540D01*
X134025703Y-77577886D01*
X133940097Y-77527012D01*
X133858258Y-77472051D01*
X133780144Y-77413134D01*
X133705713Y-77350393D01*
X133634925Y-77283960D01*
X133567738Y-77213968D01*
X133512178Y-77150365D01*
X133459486Y-77084091D01*
X133409760Y-77015247D01*
X133363100Y-76943930D01*
X133319604Y-76870240D01*
X133279372Y-76794275D01*
X133242502Y-76716134D01*
X133209093Y-76635917D01*
X133179245Y-76553722D01*
X133153055Y-76469648D01*
X133130623Y-76383794D01*
X133112048Y-76296259D01*
X133097429Y-76207142D01*
X133086864Y-76116541D01*
X133080453Y-76024556D01*
X133078293Y-75931285D01*
X133081039Y-75828530D01*
X133089183Y-75727109D01*
X133102584Y-75627171D01*
X133121102Y-75528866D01*
X133144599Y-75432340D01*
X133172932Y-75337743D01*
X133205963Y-75245222D01*
X133243552Y-75154926D01*
X133285557Y-75067004D01*
X133331839Y-74981603D01*
X133382259Y-74898873D01*
X133436675Y-74818960D01*
X133494948Y-74742015D01*
X133556937Y-74668184D01*
X133622504Y-74597617D01*
X133691506Y-74530462D01*
X133756190Y-74473848D01*
X133823701Y-74420110D01*
X133894097Y-74369356D01*
X133967434Y-74321691D01*
X134043771Y-74277225D01*
X134123166Y-74236063D01*
X134205675Y-74198313D01*
X134291357Y-74164081D01*
X134380270Y-74133476D01*
X134472471Y-74106604D01*
X134568017Y-74083572D01*
X134666968Y-74064487D01*
X134769379Y-74049457D01*
X134875309Y-74038589D01*
X134984815Y-74031989D01*
X135097956Y-74029765D01*
X137089490Y-74029765D01*
X137089490Y-75036783D01*
G37*
G36*
X154971096Y-81905887D02*
G01*
X154971096Y-82896028D01*
X153947200Y-82896028D01*
X153947200Y-81905885D01*
X154971096Y-81905887D01*
G37*
G36*
X140878463Y-72769588D02*
G01*
X139854568Y-72769588D01*
X139854568Y-68966546D01*
X140878463Y-68966546D01*
X140878463Y-72769588D01*
G37*
G36*
X152210028Y-79094620D02*
G01*
X152291780Y-79099458D01*
X152369808Y-79107412D01*
X152444226Y-79118390D01*
X152515150Y-79132302D01*
X152582695Y-79149057D01*
X152646977Y-79168565D01*
X152708111Y-79190734D01*
X152766212Y-79215475D01*
X152821396Y-79242696D01*
X152873778Y-79272307D01*
X152923474Y-79304217D01*
X152970598Y-79338336D01*
X153015267Y-79374572D01*
X153057595Y-79412836D01*
X153097698Y-79453037D01*
X153131704Y-79490736D01*
X153164054Y-79529952D01*
X153194673Y-79570618D01*
X153223487Y-79612669D01*
X153250423Y-79656038D01*
X153275405Y-79700660D01*
X153298360Y-79746468D01*
X153319214Y-79793398D01*
X153337892Y-79841382D01*
X153354320Y-79890355D01*
X153368424Y-79940251D01*
X153380130Y-79991004D01*
X153389364Y-80042548D01*
X153396052Y-80094818D01*
X153400119Y-80147746D01*
X153401491Y-80201269D01*
X153400414Y-80258014D01*
X153397096Y-80314258D01*
X153391404Y-80369891D01*
X153383207Y-80424807D01*
X153372373Y-80478899D01*
X153358770Y-80532060D01*
X153342267Y-80584182D01*
X153322730Y-80635159D01*
X153300029Y-80684884D01*
X153274032Y-80733248D01*
X153244607Y-80780146D01*
X153228567Y-80803011D01*
X153211621Y-80825470D01*
X153193752Y-80847508D01*
X153174943Y-80869112D01*
X153155179Y-80890269D01*
X153134442Y-80910966D01*
X153112716Y-80931189D01*
X153089985Y-80950925D01*
X153066232Y-80970160D01*
X153041441Y-80988881D01*
X153087267Y-81018000D01*
X153129838Y-81048568D01*
X153169195Y-81080850D01*
X153205380Y-81115111D01*
X153238433Y-81151613D01*
X153268395Y-81190620D01*
X153295309Y-81232396D01*
X153319214Y-81277204D01*
X153340153Y-81325309D01*
X153358166Y-81376974D01*
X153373295Y-81432463D01*
X153385581Y-81492039D01*
X153395065Y-81555967D01*
X153401788Y-81624510D01*
X153405792Y-81697931D01*
X153407118Y-81776494D01*
X153407118Y-82535978D01*
X153407381Y-82593905D01*
X153408173Y-82646032D01*
X153409492Y-82693411D01*
X153411339Y-82737099D01*
X153413713Y-82778149D01*
X153416614Y-82817618D01*
X153420042Y-82856559D01*
X153423998Y-82896028D01*
X152394478Y-82896028D01*
X152390514Y-82864382D01*
X152387081Y-82832737D01*
X152384180Y-82801092D01*
X152381807Y-82769447D01*
X152379964Y-82737802D01*
X152378649Y-82706156D01*
X152377860Y-82674511D01*
X152377597Y-82642866D01*
X152377597Y-81883382D01*
X152376198Y-81839726D01*
X152371939Y-81799424D01*
X152368708Y-81780508D01*
X152364729Y-81762402D01*
X152359990Y-81745098D01*
X152354479Y-81728586D01*
X152348185Y-81712857D01*
X152341097Y-81697901D01*
X152333204Y-81683710D01*
X152324493Y-81670273D01*
X152314954Y-81657583D01*
X152304576Y-81645629D01*
X152293347Y-81634402D01*
X152281256Y-81623893D01*
X152268291Y-81614093D01*
X152254441Y-81604993D01*
X152239695Y-81596582D01*
X152224042Y-81588853D01*
X152207470Y-81581795D01*
X152189967Y-81575400D01*
X152171523Y-81569657D01*
X152152126Y-81564558D01*
X152110428Y-81556256D01*
X152064783Y-81550417D01*
X152015100Y-81546968D01*
X151961288Y-81545835D01*
X150189161Y-81545835D01*
X150189161Y-82896028D01*
X149170890Y-82896028D01*
X149170890Y-80679462D01*
X150189161Y-80679462D01*
X151989420Y-80679458D01*
X152002441Y-80679311D01*
X152015140Y-80678872D01*
X152027521Y-80678146D01*
X152039591Y-80677140D01*
X152051356Y-80675857D01*
X152062822Y-80674304D01*
X152073996Y-80672484D01*
X152084883Y-80670405D01*
X152095491Y-80668069D01*
X152105824Y-80665484D01*
X152115889Y-80662653D01*
X152125693Y-80659582D01*
X152135241Y-80656276D01*
X152144540Y-80652741D01*
X152153596Y-80648981D01*
X152162415Y-80645001D01*
X152179367Y-80636405D01*
X152195445Y-80626992D01*
X152210699Y-80616805D01*
X152225178Y-80605885D01*
X152238932Y-80594271D01*
X152252010Y-80582007D01*
X152264462Y-80569133D01*
X152276336Y-80555690D01*
X152284575Y-80545011D01*
X152292402Y-80534076D01*
X152299800Y-80522895D01*
X152306753Y-80511474D01*
X152313244Y-80499822D01*
X152319258Y-80487948D01*
X152324777Y-80475859D01*
X152329785Y-80463565D01*
X152334265Y-80451073D01*
X152338202Y-80438391D01*
X152341578Y-80425529D01*
X152344377Y-80412493D01*
X152346583Y-80399293D01*
X152348179Y-80385936D01*
X152349149Y-80372432D01*
X152349476Y-80358787D01*
X152349146Y-80344025D01*
X152348157Y-80329296D01*
X152346509Y-80314633D01*
X152344201Y-80300068D01*
X152341234Y-80285636D01*
X152337608Y-80271368D01*
X152333322Y-80257298D01*
X152328377Y-80243459D01*
X152322773Y-80229884D01*
X152316510Y-80216605D01*
X152309587Y-80203656D01*
X152302005Y-80191069D01*
X152293764Y-80178878D01*
X152284864Y-80167115D01*
X152275304Y-80155814D01*
X152265085Y-80145008D01*
X152254139Y-80133672D01*
X152242395Y-80122888D01*
X152229842Y-80112682D01*
X152216474Y-80103077D01*
X152202282Y-80094098D01*
X152187257Y-80085771D01*
X152171392Y-80078119D01*
X152154678Y-80071168D01*
X152137107Y-80064942D01*
X152118671Y-80059466D01*
X152099361Y-80054764D01*
X152079169Y-80050863D01*
X152058087Y-80047785D01*
X152036107Y-80045555D01*
X152013221Y-80044200D01*
X151989420Y-80043743D01*
X150273552Y-80043743D01*
X150268360Y-80043841D01*
X150263332Y-80044134D01*
X150258470Y-80044619D01*
X150253772Y-80045292D01*
X150249240Y-80046151D01*
X150244872Y-80047192D01*
X150240669Y-80048412D01*
X150236630Y-80049809D01*
X150232757Y-80051378D01*
X150229048Y-80053118D01*
X150225505Y-80055024D01*
X150222126Y-80057094D01*
X150218912Y-80059325D01*
X150215862Y-80061714D01*
X150212978Y-80064257D01*
X150210258Y-80066951D01*
X150207704Y-80069794D01*
X150205314Y-80072782D01*
X150203089Y-80075912D01*
X150201028Y-80079182D01*
X150199133Y-80082587D01*
X150197402Y-80086125D01*
X150195836Y-80089793D01*
X150194435Y-80093587D01*
X150193199Y-80097506D01*
X150192128Y-80101544D01*
X150191221Y-80105700D01*
X150190480Y-80109971D01*
X150189903Y-80114352D01*
X150189491Y-80118842D01*
X150189161Y-80128133D01*
X150189161Y-80679462D01*
X149170890Y-80679462D01*
X149170890Y-80128133D01*
X149170890Y-79329271D01*
X149171138Y-79314734D01*
X149171879Y-79300658D01*
X149173116Y-79287044D01*
X149174846Y-79273891D01*
X149177071Y-79261200D01*
X149179791Y-79248971D01*
X149183005Y-79237202D01*
X149186713Y-79225896D01*
X149190916Y-79215051D01*
X149195613Y-79204667D01*
X149200805Y-79194745D01*
X149206491Y-79185284D01*
X149212672Y-79176285D01*
X149219347Y-79167748D01*
X149226517Y-79159672D01*
X149234181Y-79152057D01*
X149242339Y-79144904D01*
X149250992Y-79138212D01*
X149260139Y-79131982D01*
X149269781Y-79126214D01*
X149279918Y-79120906D01*
X149290548Y-79116061D01*
X149301674Y-79111677D01*
X149313293Y-79107754D01*
X149325407Y-79104293D01*
X149338016Y-79101293D01*
X149351119Y-79098755D01*
X149364716Y-79096678D01*
X149378808Y-79095063D01*
X149393395Y-79093909D01*
X149424051Y-79092986D01*
X152124435Y-79092986D01*
X152210028Y-79094620D01*
G37*
G36*
X133137991Y-79095212D02*
G01*
X133247497Y-79101812D01*
X133353427Y-79112680D01*
X133455839Y-79127710D01*
X133554789Y-79146795D01*
X133650335Y-79169827D01*
X133742536Y-79196699D01*
X133831449Y-79227304D01*
X133917131Y-79261535D01*
X133999640Y-79299286D01*
X134079035Y-79340448D01*
X134155372Y-79384914D01*
X134228709Y-79432579D01*
X134299104Y-79483333D01*
X134366615Y-79537071D01*
X134431300Y-79593685D01*
X134500302Y-79660840D01*
X134565868Y-79731406D01*
X134627858Y-79805237D01*
X134686131Y-79882182D01*
X134740547Y-79962094D01*
X134790966Y-80044825D01*
X134837248Y-80130225D01*
X134879254Y-80218148D01*
X134916842Y-80308443D01*
X134949873Y-80400964D01*
X134978206Y-80495562D01*
X135001703Y-80592088D01*
X135020221Y-80690393D01*
X135033622Y-80790331D01*
X135041766Y-80891752D01*
X135044511Y-80994508D01*
X135042352Y-81087779D01*
X135035941Y-81179764D01*
X135025376Y-81270365D01*
X135010757Y-81359482D01*
X134992182Y-81447017D01*
X134969750Y-81532871D01*
X134943560Y-81616945D01*
X134913712Y-81699139D01*
X134880303Y-81779357D01*
X134843434Y-81857497D01*
X134803201Y-81933462D01*
X134759706Y-82007152D01*
X134713046Y-82078469D01*
X134663320Y-82147314D01*
X134610628Y-82213587D01*
X134555068Y-82277191D01*
X134487881Y-82347183D01*
X134417092Y-82413615D01*
X134342662Y-82476356D01*
X134264547Y-82535273D01*
X134182708Y-82590234D01*
X134097103Y-82641108D01*
X134007690Y-82687763D01*
X133914429Y-82730066D01*
X133817278Y-82767886D01*
X133716197Y-82801092D01*
X133611143Y-82829551D01*
X133502076Y-82853131D01*
X133388954Y-82871701D01*
X133271737Y-82885128D01*
X133150382Y-82893281D01*
X133024850Y-82896028D01*
X132225986Y-82896028D01*
X132100454Y-82893281D01*
X131979099Y-82885128D01*
X131861882Y-82871701D01*
X131748760Y-82853131D01*
X131639693Y-82829551D01*
X131534639Y-82801092D01*
X131433557Y-82767886D01*
X131336407Y-82730066D01*
X131243146Y-82687763D01*
X131153733Y-82641108D01*
X131068128Y-82590234D01*
X130986289Y-82535273D01*
X130908174Y-82476356D01*
X130833744Y-82413615D01*
X130762956Y-82347183D01*
X130695769Y-82277191D01*
X130640209Y-82213587D01*
X130587516Y-82147314D01*
X130537791Y-82078470D01*
X130491130Y-82007153D01*
X130447635Y-81933463D01*
X130407403Y-81857498D01*
X130370533Y-81779357D01*
X130337124Y-81699140D01*
X130307275Y-81616945D01*
X130281086Y-81532871D01*
X130258654Y-81447017D01*
X130240079Y-81359482D01*
X130225460Y-81270365D01*
X130214895Y-81179764D01*
X130208483Y-81087779D01*
X130206455Y-81000135D01*
X131224594Y-81000135D01*
X131225640Y-81043176D01*
X131228747Y-81085763D01*
X131233865Y-81127840D01*
X131240944Y-81169348D01*
X131249935Y-81210230D01*
X131260788Y-81250428D01*
X131273454Y-81289884D01*
X131287884Y-81328541D01*
X131304028Y-81366341D01*
X131321836Y-81403226D01*
X131341260Y-81439139D01*
X131362250Y-81474021D01*
X131384756Y-81507816D01*
X131408729Y-81540465D01*
X131434119Y-81571911D01*
X131460877Y-81602096D01*
X131492400Y-81635049D01*
X131525826Y-81666353D01*
X131561214Y-81695943D01*
X131598621Y-81723754D01*
X131638105Y-81749718D01*
X131679723Y-81773771D01*
X131723533Y-81795845D01*
X131769593Y-81815876D01*
X131817960Y-81833797D01*
X131868693Y-81849543D01*
X131921848Y-81863047D01*
X131977484Y-81874244D01*
X132035658Y-81883067D01*
X132096428Y-81889451D01*
X132159851Y-81893330D01*
X132225986Y-81894637D01*
X133024850Y-81894637D01*
X133090984Y-81893330D01*
X133154408Y-81889451D01*
X133215178Y-81883067D01*
X133273352Y-81874244D01*
X133328988Y-81863047D01*
X133382143Y-81849543D01*
X133432875Y-81833797D01*
X133481243Y-81815876D01*
X133527303Y-81795845D01*
X133571113Y-81773771D01*
X133612731Y-81749718D01*
X133652214Y-81723754D01*
X133689621Y-81695943D01*
X133725009Y-81666353D01*
X133758436Y-81635049D01*
X133789959Y-81602096D01*
X133816717Y-81571911D01*
X133842108Y-81540465D01*
X133866081Y-81507816D01*
X133888587Y-81474021D01*
X133909577Y-81439139D01*
X133929001Y-81403226D01*
X133946809Y-81366341D01*
X133962953Y-81328541D01*
X133977383Y-81289884D01*
X133990049Y-81250428D01*
X134000902Y-81210230D01*
X134009892Y-81169348D01*
X134016971Y-81127840D01*
X134022089Y-81085763D01*
X134025195Y-81043176D01*
X134026242Y-81000135D01*
X134024999Y-80952878D01*
X134021308Y-80906100D01*
X134015228Y-80859882D01*
X134006815Y-80814307D01*
X133996128Y-80769457D01*
X133983224Y-80725415D01*
X133968161Y-80682263D01*
X133950997Y-80640083D01*
X133931789Y-80598958D01*
X133910595Y-80558970D01*
X133887472Y-80520202D01*
X133862479Y-80482736D01*
X133835672Y-80446655D01*
X133807111Y-80412040D01*
X133776851Y-80378975D01*
X133744952Y-80347541D01*
X133713749Y-80319730D01*
X133681244Y-80293294D01*
X133647322Y-80268293D01*
X133611867Y-80244783D01*
X133574763Y-80222822D01*
X133535896Y-80202468D01*
X133495151Y-80183779D01*
X133452410Y-80166813D01*
X133407561Y-80151626D01*
X133360486Y-80138277D01*
X133311070Y-80126823D01*
X133259199Y-80117323D01*
X133204757Y-80109833D01*
X133147628Y-80104412D01*
X133087698Y-80101117D01*
X133024850Y-80100006D01*
X132225985Y-80100006D01*
X132163137Y-80101117D01*
X132103206Y-80104412D01*
X132046078Y-80109833D01*
X131991635Y-80117323D01*
X131939764Y-80126823D01*
X131890349Y-80138277D01*
X131843274Y-80151626D01*
X131798424Y-80166813D01*
X131755684Y-80183779D01*
X131714938Y-80202468D01*
X131676071Y-80222822D01*
X131638968Y-80244783D01*
X131603513Y-80268293D01*
X131569591Y-80293294D01*
X131537086Y-80319730D01*
X131505883Y-80347541D01*
X131473984Y-80378975D01*
X131443725Y-80412040D01*
X131415163Y-80446655D01*
X131388357Y-80482737D01*
X131363363Y-80520203D01*
X131340241Y-80558971D01*
X131319047Y-80598959D01*
X131299839Y-80640084D01*
X131282674Y-80682263D01*
X131267611Y-80725416D01*
X131254707Y-80769458D01*
X131244020Y-80814308D01*
X131235608Y-80859883D01*
X131229527Y-80906101D01*
X131225837Y-80952879D01*
X131224594Y-81000135D01*
X130206455Y-81000135D01*
X130206324Y-80994508D01*
X130209070Y-80891752D01*
X130217213Y-80790332D01*
X130230614Y-80690394D01*
X130249133Y-80592089D01*
X130272629Y-80495563D01*
X130300963Y-80400965D01*
X130333994Y-80308445D01*
X130371582Y-80218149D01*
X130413587Y-80130227D01*
X130459870Y-80044826D01*
X130510289Y-79962095D01*
X130564705Y-79882183D01*
X130622978Y-79805238D01*
X130684968Y-79731407D01*
X130750534Y-79660840D01*
X130819536Y-79593685D01*
X130884221Y-79537071D01*
X130951732Y-79483333D01*
X131022127Y-79432579D01*
X131095464Y-79384914D01*
X131171801Y-79340448D01*
X131251195Y-79299286D01*
X131333705Y-79261535D01*
X131419387Y-79227304D01*
X131508300Y-79196699D01*
X131600500Y-79169827D01*
X131696047Y-79146795D01*
X131794997Y-79127710D01*
X131897408Y-79112680D01*
X132003338Y-79101812D01*
X132112845Y-79095212D01*
X132225986Y-79092988D01*
X133024850Y-79092988D01*
X133137991Y-79095212D01*
G37*
G36*
X136518465Y-81562713D02*
G01*
X136519351Y-81612184D01*
X136522124Y-81657328D01*
X136526957Y-81698303D01*
X136530200Y-81717276D01*
X136534024Y-81735265D01*
X136538448Y-81752290D01*
X136543497Y-81768370D01*
X136549189Y-81783525D01*
X136555549Y-81797775D01*
X136562596Y-81811138D01*
X136570354Y-81823636D01*
X136578842Y-81835287D01*
X136588084Y-81846110D01*
X136598100Y-81856127D01*
X136608913Y-81865355D01*
X136620543Y-81873814D01*
X136633014Y-81881525D01*
X136646345Y-81888506D01*
X136660559Y-81894778D01*
X136675677Y-81900359D01*
X136691722Y-81905270D01*
X136708714Y-81909530D01*
X136726676Y-81913158D01*
X136745628Y-81916175D01*
X136765594Y-81918599D01*
X136808648Y-81921748D01*
X136856013Y-81922763D01*
X139494514Y-81922763D01*
X139494514Y-82896028D01*
X136732244Y-82896028D01*
X136646529Y-82894825D01*
X136564445Y-82891214D01*
X136485934Y-82885195D01*
X136410936Y-82876766D01*
X136339391Y-82865927D01*
X136271239Y-82852676D01*
X136206420Y-82837013D01*
X136144876Y-82818937D01*
X136086545Y-82798445D01*
X136031368Y-82775539D01*
X135979286Y-82750215D01*
X135930238Y-82722474D01*
X135884166Y-82692314D01*
X135841008Y-82659734D01*
X135800706Y-82624734D01*
X135763200Y-82587312D01*
X135728430Y-82547467D01*
X135696336Y-82505198D01*
X135666859Y-82460504D01*
X135639938Y-82413384D01*
X135615515Y-82363837D01*
X135593528Y-82311863D01*
X135573919Y-82257459D01*
X135556628Y-82200626D01*
X135541595Y-82141361D01*
X135528760Y-82079664D01*
X135509446Y-81948970D01*
X135498208Y-81808535D01*
X135494568Y-81658351D01*
X135494568Y-79092986D01*
X136518465Y-79092986D01*
X136518465Y-81562713D01*
G37*
G36*
X129700000Y-80100000D02*
G01*
X126965861Y-80100000D01*
X126943306Y-80100327D01*
X126922020Y-80101296D01*
X126901953Y-80102892D01*
X126883057Y-80105098D01*
X126865281Y-80107898D01*
X126848577Y-80111274D01*
X126832894Y-80115210D01*
X126818184Y-80119691D01*
X126804397Y-80124699D01*
X126791484Y-80130218D01*
X126779394Y-80136231D01*
X126768079Y-80142723D01*
X126757490Y-80149676D01*
X126747576Y-80157074D01*
X126738289Y-80164900D01*
X126729578Y-80173139D01*
X126720350Y-80182829D01*
X126711657Y-80192906D01*
X126703508Y-80203363D01*
X126695911Y-80214190D01*
X126688875Y-80225380D01*
X126682407Y-80236924D01*
X126676516Y-80248815D01*
X126671210Y-80261043D01*
X126666498Y-80273601D01*
X126662387Y-80286480D01*
X126658886Y-80299672D01*
X126656003Y-80313169D01*
X126653746Y-80326963D01*
X126652124Y-80341045D01*
X126651145Y-80355408D01*
X126650817Y-80370042D01*
X126651273Y-80385729D01*
X126652619Y-80401127D01*
X126654822Y-80416212D01*
X126657849Y-80430958D01*
X126661667Y-80445343D01*
X126666244Y-80459340D01*
X126671546Y-80472925D01*
X126677540Y-80486073D01*
X126684193Y-80498759D01*
X126691472Y-80510960D01*
X126699345Y-80522650D01*
X126707778Y-80533804D01*
X126716739Y-80544398D01*
X126726194Y-80554406D01*
X126736111Y-80563805D01*
X126746456Y-80572570D01*
X126755039Y-80579692D01*
X126763959Y-80586294D01*
X126773292Y-80592385D01*
X126783111Y-80597974D01*
X126793491Y-80603068D01*
X126804505Y-80607676D01*
X126816227Y-80611806D01*
X126828733Y-80615467D01*
X126842096Y-80618666D01*
X126856390Y-80621412D01*
X126871689Y-80623713D01*
X126888068Y-80625577D01*
X126905600Y-80627012D01*
X126924361Y-80628027D01*
X126944423Y-80628630D01*
X126965862Y-80628829D01*
X128636725Y-80628829D01*
X128715258Y-80630397D01*
X128790577Y-80635038D01*
X128862765Y-80642662D01*
X128931903Y-80653179D01*
X128998075Y-80666498D01*
X129061363Y-80682528D01*
X129121848Y-80701179D01*
X129179614Y-80722360D01*
X129234743Y-80745980D01*
X129287318Y-80771949D01*
X129337420Y-80800177D01*
X129385132Y-80830571D01*
X129430537Y-80863043D01*
X129473716Y-80897500D01*
X129514753Y-80933853D01*
X129553730Y-80972011D01*
X129590770Y-81011884D01*
X129625899Y-81053388D01*
X129659049Y-81096442D01*
X129690156Y-81140962D01*
X129719153Y-81186867D01*
X129745974Y-81234074D01*
X129770554Y-81282500D01*
X129792827Y-81332064D01*
X129812726Y-81382682D01*
X129830185Y-81434273D01*
X129845140Y-81486754D01*
X129857523Y-81540043D01*
X129867270Y-81594056D01*
X129874313Y-81648713D01*
X129878587Y-81703929D01*
X129880026Y-81759624D01*
X129878783Y-81811167D01*
X129875093Y-81862371D01*
X129869013Y-81913164D01*
X129860600Y-81963471D01*
X129849913Y-82013217D01*
X129837009Y-82062329D01*
X129821946Y-82110731D01*
X129804781Y-82158352D01*
X129785573Y-82205115D01*
X129764379Y-82250946D01*
X129741256Y-82295773D01*
X129716263Y-82339520D01*
X129689457Y-82382113D01*
X129660895Y-82423479D01*
X129630636Y-82463542D01*
X129598736Y-82502229D01*
X129558574Y-82546517D01*
X129516097Y-82588605D01*
X129471229Y-82628402D01*
X129423897Y-82665817D01*
X129374027Y-82700760D01*
X129321545Y-82733140D01*
X129266376Y-82762866D01*
X129208447Y-82789848D01*
X129147682Y-82813996D01*
X129084009Y-82835217D01*
X129017352Y-82853423D01*
X128947638Y-82868522D01*
X128874792Y-82880423D01*
X128798741Y-82889036D01*
X128719410Y-82894271D01*
X128636725Y-82896036D01*
X125688805Y-82896036D01*
X125688805Y-81922771D01*
X128456699Y-81922771D01*
X128485324Y-81922377D01*
X128512177Y-81921199D01*
X128537332Y-81919247D01*
X128560864Y-81916529D01*
X128582847Y-81913052D01*
X128603354Y-81908826D01*
X128613078Y-81906434D01*
X128622461Y-81903857D01*
X128631512Y-81901098D01*
X128640241Y-81898156D01*
X128648656Y-81895033D01*
X128656768Y-81891729D01*
X128664585Y-81888246D01*
X128672117Y-81884585D01*
X128679372Y-81880747D01*
X128686361Y-81876733D01*
X128693092Y-81872544D01*
X128699575Y-81868180D01*
X128705819Y-81863644D01*
X128711834Y-81858935D01*
X128717628Y-81854056D01*
X128723210Y-81849007D01*
X128733779Y-81838402D01*
X128743615Y-81827131D01*
X128750800Y-81818497D01*
X128757581Y-81809484D01*
X128763949Y-81800108D01*
X128769898Y-81790387D01*
X128775418Y-81780336D01*
X128780501Y-81769971D01*
X128785140Y-81759310D01*
X128789325Y-81748369D01*
X128793048Y-81737164D01*
X128796302Y-81725712D01*
X128799078Y-81714029D01*
X128801367Y-81702132D01*
X128803162Y-81690037D01*
X128804455Y-81677761D01*
X128805236Y-81665320D01*
X128805499Y-81652730D01*
X128805170Y-81638033D01*
X128804191Y-81623491D01*
X128802569Y-81609131D01*
X128800312Y-81594977D01*
X128797430Y-81581054D01*
X128793928Y-81567386D01*
X128789818Y-81553999D01*
X128785105Y-81540916D01*
X128779799Y-81528163D01*
X128773909Y-81515765D01*
X128767441Y-81503745D01*
X128760404Y-81492130D01*
X128752808Y-81480943D01*
X128744659Y-81470209D01*
X128735966Y-81459953D01*
X128726738Y-81450200D01*
X128716968Y-81439981D01*
X128706597Y-81430421D01*
X128695550Y-81421521D01*
X128683753Y-81413279D01*
X128671132Y-81405697D01*
X128657613Y-81398775D01*
X128643121Y-81392511D01*
X128627583Y-81386907D01*
X128610924Y-81381963D01*
X128593070Y-81377677D01*
X128573947Y-81374051D01*
X128553480Y-81371084D01*
X128531597Y-81368777D01*
X128508221Y-81367128D01*
X128483280Y-81366139D01*
X128456699Y-81365810D01*
X126909604Y-81365810D01*
X126817144Y-81364243D01*
X126729513Y-81359602D01*
X126646529Y-81351977D01*
X126568013Y-81341461D01*
X126493781Y-81328142D01*
X126423654Y-81312112D01*
X126357449Y-81293461D01*
X126294985Y-81272281D01*
X126236082Y-81248661D01*
X126180557Y-81222692D01*
X126128230Y-81194466D01*
X126078919Y-81164072D01*
X126032443Y-81131601D01*
X125988621Y-81097145D01*
X125947271Y-81060793D01*
X125908212Y-81022636D01*
X125871235Y-80982824D01*
X125836285Y-80941479D01*
X125803412Y-80898651D01*
X125772665Y-80854389D01*
X125744094Y-80808743D01*
X125717748Y-80761761D01*
X125693676Y-80713494D01*
X125671928Y-80663991D01*
X125652554Y-80613301D01*
X125635602Y-80561474D01*
X125621123Y-80508559D01*
X125609165Y-80454606D01*
X125599779Y-80399664D01*
X125593013Y-80343782D01*
X125588917Y-80287010D01*
X125587541Y-80229398D01*
X125588980Y-80172713D01*
X125593255Y-80116630D01*
X125600298Y-80061222D01*
X125610044Y-80006564D01*
X125622428Y-79952730D01*
X125637382Y-79899795D01*
X125654842Y-79847831D01*
X125674741Y-79796915D01*
X125697013Y-79747119D01*
X125721593Y-79698518D01*
X125748415Y-79651187D01*
X125777412Y-79605198D01*
X125808518Y-79560627D01*
X125841669Y-79517548D01*
X125876797Y-79476034D01*
X125913837Y-79436160D01*
X125952833Y-79398004D01*
X125994005Y-79361652D01*
X126037550Y-79327195D01*
X126083666Y-79294724D01*
X126132551Y-79264330D01*
X126184403Y-79236104D01*
X126239419Y-79210135D01*
X126297798Y-79186515D01*
X126359737Y-79165335D01*
X126425433Y-79146684D01*
X126495086Y-79130654D01*
X126568891Y-79117336D01*
X126647048Y-79106819D01*
X126729754Y-79099195D01*
X126817207Y-79094554D01*
X126909604Y-79092986D01*
X129700001Y-79092986D01*
X129700000Y-80100000D01*
G37*
G36*
X154971096Y-81585214D02*
G01*
X153947200Y-81585214D01*
X153947200Y-79092985D01*
X154971096Y-79092985D01*
X154971096Y-81585214D01*
G37*
D11*
%TO.C,D2*%
X148110000Y-84855000D02*
X148110000Y-87945000D01*
X148110000Y-84855170D02*
G75*
G02*
X153660000Y-86400462I2560000J-1544830D01*
G01*
X153660000Y-86399538D02*
G75*
G02*
X148110000Y-87944830I-2990000J-462D01*
G01*
X153170000Y-86400000D02*
G75*
G02*
X148170000Y-86400000I-2500000J0D01*
G01*
X148170000Y-86400000D02*
G75*
G02*
X153170000Y-86400000I2500000J0D01*
G01*
%TO.C,D1*%
X132665000Y-88045000D02*
X132665000Y-84955000D01*
X127115000Y-86500462D02*
G75*
G02*
X132665000Y-84955170I2990000J462D01*
G01*
X132665000Y-88044830D02*
G75*
G02*
X127115000Y-86499538I-2560000J1544830D01*
G01*
X132605000Y-86500000D02*
G75*
G02*
X127605000Y-86500000I-2500000J0D01*
G01*
X127605000Y-86500000D02*
G75*
G02*
X132605000Y-86500000I2500000J0D01*
G01*
%TD*%
M02*
