G04 #@! TF.GenerationSoftware,KiCad,Pcbnew,8.0.6-8.0.6-0~ubuntu24.04.1*
G04 #@! TF.CreationDate,2024-11-08T14:35:49+00:00*
G04 #@! TF.ProjectId,I_Can_Solder_Badge,495f4361-6e5f-4536-9f6c-6465725f4261,rev?*
G04 #@! TF.SameCoordinates,Original*
G04 #@! TF.FileFunction,Profile,NP*
%FSLAX46Y46*%
G04 Gerber Fmt 4.6, Leading zero omitted, Abs format (unit mm)*
G04 Created by KiCad (PCBNEW 8.0.6-8.0.6-0~ubuntu24.04.1) date 2024-11-08 14:35:49*
%MOMM*%
%LPD*%
G01*
G04 APERTURE LIST*
G04 #@! TA.AperFunction,Profile*
%ADD10C,0.100000*%
G04 #@! TD*
G04 APERTURE END LIST*
D10*
X154974024Y-50690184D02*
X155119020Y-50701143D01*
X155261863Y-50719192D01*
X155402375Y-50744154D01*
X155540381Y-50775855D01*
X155675705Y-50814117D01*
X155808169Y-50858764D01*
X155937599Y-50909620D01*
X156063816Y-50966508D01*
X156186646Y-51029252D01*
X156305912Y-51097676D01*
X156421438Y-51171603D01*
X156533046Y-51250858D01*
X156640562Y-51335264D01*
X156743808Y-51424644D01*
X156842609Y-51518823D01*
X156936787Y-51617623D01*
X157026168Y-51720870D01*
X157110573Y-51828385D01*
X157189828Y-51939994D01*
X157263756Y-52055519D01*
X157332180Y-52174785D01*
X157394924Y-52297615D01*
X157451812Y-52423833D01*
X157502668Y-52553262D01*
X157547314Y-52685727D01*
X157585576Y-52821050D01*
X157617277Y-52959056D01*
X157642240Y-53099568D01*
X157660289Y-53242411D01*
X157671247Y-53387407D01*
X157674939Y-53534380D01*
X157674939Y-87803088D01*
X157671166Y-87953290D01*
X157659967Y-88101471D01*
X157641522Y-88247451D01*
X157616011Y-88391050D01*
X157583615Y-88532087D01*
X157544514Y-88670382D01*
X157498887Y-88805756D01*
X157446915Y-88938027D01*
X157388778Y-89067017D01*
X157324657Y-89192544D01*
X157254731Y-89314429D01*
X157179181Y-89432490D01*
X157098187Y-89546550D01*
X157011928Y-89656426D01*
X156920586Y-89761938D01*
X156824340Y-89862908D01*
X156723371Y-89959154D01*
X156617858Y-90050496D01*
X156507982Y-90136755D01*
X156393923Y-90217749D01*
X156275861Y-90293299D01*
X156153977Y-90363225D01*
X156028450Y-90427347D01*
X155899461Y-90485483D01*
X155767189Y-90537455D01*
X155631816Y-90583082D01*
X155493521Y-90622184D01*
X155352484Y-90654580D01*
X155208886Y-90680090D01*
X155062906Y-90698536D01*
X154914725Y-90709735D01*
X154764524Y-90713508D01*
X126835478Y-90713508D01*
X126685276Y-90709735D01*
X126537095Y-90698536D01*
X126391115Y-90680090D01*
X126247517Y-90654580D01*
X126106480Y-90622184D01*
X125968184Y-90583082D01*
X125832811Y-90537455D01*
X125700539Y-90485483D01*
X125571550Y-90427347D01*
X125446023Y-90363225D01*
X125324139Y-90293299D01*
X125206077Y-90217749D01*
X125092018Y-90136755D01*
X124982142Y-90050496D01*
X124876629Y-89959154D01*
X124775660Y-89862908D01*
X124679414Y-89761938D01*
X124588072Y-89656426D01*
X124501813Y-89546550D01*
X124420819Y-89432490D01*
X124345269Y-89314429D01*
X124275343Y-89192544D01*
X124211222Y-89067017D01*
X124153085Y-88938027D01*
X124101113Y-88805756D01*
X124055486Y-88670382D01*
X124016385Y-88532087D01*
X123983989Y-88391050D01*
X123958478Y-88247451D01*
X123940033Y-88101471D01*
X123928834Y-87953290D01*
X123925061Y-87803088D01*
X123925061Y-53534380D01*
X123928752Y-53387407D01*
X123939706Y-53242411D01*
X123957748Y-53099568D01*
X123982701Y-52959056D01*
X124014390Y-52821050D01*
X124052638Y-52685727D01*
X124097269Y-52553262D01*
X124148108Y-52423833D01*
X124204977Y-52297615D01*
X124267701Y-52174785D01*
X124336104Y-52055519D01*
X124410009Y-51939994D01*
X124489241Y-51828385D01*
X124573623Y-51720870D01*
X124662979Y-51617623D01*
X124757133Y-51518823D01*
X124855910Y-51424644D01*
X124959132Y-51335264D01*
X125066624Y-51250858D01*
X125178209Y-51171603D01*
X125293712Y-51097676D01*
X125412957Y-51029252D01*
X125535767Y-50966508D01*
X125661966Y-50909620D01*
X125791378Y-50858764D01*
X125923826Y-50814117D01*
X126059136Y-50775855D01*
X126197131Y-50744154D01*
X126337633Y-50719192D01*
X126480469Y-50701143D01*
X126625461Y-50690184D01*
X126772433Y-50686492D01*
X126919406Y-50690184D01*
X127064402Y-50701143D01*
X127207244Y-50719192D01*
X127347757Y-50744154D01*
X127485763Y-50775855D01*
X127621086Y-50814117D01*
X127753551Y-50858764D01*
X127882980Y-50909620D01*
X128009198Y-50966508D01*
X128132028Y-51029252D01*
X128251294Y-51097676D01*
X128366819Y-51171603D01*
X128478427Y-51250858D01*
X128585943Y-51335264D01*
X128689189Y-51424644D01*
X128787990Y-51518823D01*
X128882168Y-51617623D01*
X128971549Y-51720870D01*
X129055954Y-51828385D01*
X129135209Y-51939994D01*
X129209137Y-52055519D01*
X129277561Y-52174785D01*
X129340305Y-52297615D01*
X129397193Y-52423833D01*
X129448049Y-52553262D01*
X129492696Y-52685727D01*
X129530958Y-52821050D01*
X129562658Y-52959056D01*
X129587621Y-53099568D01*
X129605670Y-53242411D01*
X129616628Y-53387407D01*
X129620321Y-53534380D01*
X129620321Y-55713058D01*
X151979680Y-55713058D01*
X151979680Y-53534380D01*
X151983371Y-53387407D01*
X151994325Y-53242411D01*
X152012367Y-53099568D01*
X152037321Y-52959056D01*
X152069009Y-52821050D01*
X152107257Y-52685727D01*
X152151889Y-52553262D01*
X152202727Y-52423833D01*
X152259596Y-52297615D01*
X152322320Y-52174785D01*
X152390723Y-52055519D01*
X152464628Y-51939994D01*
X152543860Y-51828385D01*
X152628242Y-51720870D01*
X152717598Y-51617623D01*
X152811752Y-51518823D01*
X152910529Y-51424644D01*
X153013751Y-51335264D01*
X153121243Y-51250858D01*
X153232828Y-51171603D01*
X153348331Y-51097676D01*
X153467576Y-51029252D01*
X153590385Y-50966508D01*
X153716584Y-50909620D01*
X153845996Y-50858764D01*
X153978445Y-50814117D01*
X154113754Y-50775855D01*
X154251749Y-50744154D01*
X154392252Y-50719192D01*
X154535087Y-50701143D01*
X154680079Y-50690184D01*
X154827050Y-50686492D01*
X154974024Y-50690184D01*
M02*
